<?xml version="1.0" standalone="no"?>
<!DOCTYPE svg PUBLIC "-//W3C//DTD SVG 20010904//EN"
 "http://www.w3.org/TR/2001/REC-SVG-20010904/DTD/svg10.dtd">
<svg version="1.0" xmlns="http://www.w3.org/2000/svg"
 width="677.000000pt" height="288.000000pt" viewBox="0 0 677.000000 288.000000"
 preserveAspectRatio="xMidYMid meet">

<g transform="translate(0.000000,288.000000) scale(0.100000,-0.100000)"
fill="#000000" stroke="none">
<path d="M2660 2474 c-25 -49 -132 -256 -238 -460 -105 -205 -192 -375 -192
-378 0 -3 56 -6 125 -6 l126 0 56 120 56 120 148 0 147 0 11 -62 c6 -35 13
-89 17 -120 l7 -58 130 0 130 0 -7 62 c-11 90 -143 848 -150 855 -3 3 -76 8
-163 10 l-158 5 -45 -88z m185 -292 c9 -57 15 -105 13 -107 -2 -2 -40 -6 -86
-10 l-84 -8 62 123 c35 70 65 119 70 114 5 -5 16 -56 25 -112z"/>
<path d="M4012 2518 c-5 -7 -15 -44 -21 -82 -5 -38 -16 -73 -23 -78 -19 -12
-96 -10 -104 3 -10 16 -94 4 -141 -20 -38 -19 -76 -55 -107 -101 -16 -24 -16
-23 -10 38 l7 62 -122 0 c-66 0 -121 -4 -121 -8 0 -5 -12 -71 -26 -148 -51
-279 -92 -539 -85 -547 4 -4 59 -6 121 -5 l113 3 28 145 c54 290 99 360 249
388 30 6 68 15 83 21 16 6 42 11 58 11 37 0 37 7 -2 -227 -36 -221 -36 -285 4
-319 32 -28 108 -44 195 -43 128 2 145 15 158 113 6 44 6 46 -18 46 -39 0 -87
20 -98 40 -6 10 -10 34 -10 52 0 33 48 320 55 326 2 2 37 6 79 9 42 3 78 9 81
12 2 4 7 35 11 69 l7 62 -76 0 -76 0 4 28 c3 15 9 53 15 86 5 32 7 62 4 67 -9
14 -220 11 -232 -3z"/>
<path d="M3388 1397 c-7 -8 -21 -63 -31 -123 -23 -142 -37 -204 -46 -204 -4 0
-14 11 -21 24 -20 38 -78 56 -178 56 -102 -1 -171 -24 -253 -86 -98 -75 -162
-220 -163 -369 -1 -134 32 -206 118 -260 47 -29 54 -30 160 -30 121 0 143 7
212 67 l36 32 -7 -48 -8 -48 117 3 c78 3 119 8 124 16 5 7 18 75 31 150 13 76
50 287 82 468 32 182 59 338 59 348 0 15 -12 17 -109 17 -78 0 -113 -4 -123
-13z m-148 -445 c41 -41 47 -100 21 -195 -27 -98 -54 -142 -106 -172 -49 -29
-84 -31 -131 -9 -47 23 -67 65 -67 144 -1 72 14 126 50 183 34 55 76 77 146
77 51 0 62 -4 87 -28z"/>
<path d="M508 1323 c-9 -10 -109 -196 -223 -413 -114 -217 -218 -414 -232
-438 -14 -24 -22 -47 -18 -50 4 -4 61 -8 128 -10 l122 -3 55 120 55 121 151 0
152 0 6 -32 c3 -18 11 -72 17 -120 l12 -88 134 0 c133 0 133 0 128 22 -8 38
-155 885 -155 897 0 8 -49 11 -158 11 -139 0 -161 -2 -174 -17z m143 -351 c11
-89 10 -105 -2 -113 -19 -12 -139 -11 -139 1 0 23 115 239 121 227 4 -6 12
-59 20 -115z"/>
<path d="M2169 1127 c-66 -28 -118 -66 -154 -113 -36 -47 -59 -104 -46 -117 5
-5 52 -8 112 -5 95 4 103 6 118 28 33 50 49 60 101 60 45 0 52 -3 60 -26 6
-14 10 -40 10 -58 l0 -33 -114 -11 c-178 -17 -278 -61 -341 -151 -40 -57 -42
-143 -5 -210 38 -69 76 -86 190 -86 110 0 145 14 185 72 l25 38 0 -53 0 -53
112 3 c110 3 113 3 120 28 14 50 68 456 68 510 0 32 -8 73 -20 98 -16 36 -29
47 -77 69 -50 23 -74 27 -173 30 -103 3 -121 1 -171 -20z m163 -437 c-6 -40
-33 -90 -57 -106 -13 -8 -39 -17 -58 -21 -73 -11 -113 75 -55 117 36 26 81 39
128 37 42 -2 45 -4 42 -27z"/>
<path d="M3944 1140 c-194 -41 -337 -243 -321 -456 9 -128 61 -210 162 -256
43 -20 66 -23 170 -23 151 0 203 16 280 87 69 63 115 136 94 149 -8 5 -55 9
-106 9 -90 0 -92 0 -134 -36 -79 -65 -131 -72 -184 -21 -26 24 -36 43 -41 80
l-6 47 255 0 255 0 6 23 c3 12 6 60 6 107 0 69 -5 95 -24 135 -50 107 -139
157 -281 161 -49 2 -109 -1 -131 -6z m163 -182 c12 -13 26 -40 31 -60 l10 -38
-129 0 -130 0 23 42 c30 53 71 78 129 78 34 0 51 -5 66 -22z"/>
<path d="M4955 1145 c-5 -2 -23 -6 -38 -9 -16 -4 -48 -25 -73 -48 l-44 -41 0
42 0 41 -119 0 c-115 0 -119 -1 -124 -22 -19 -80 -117 -681 -112 -687 11 -10
235 -14 235 -3 0 5 17 104 39 218 52 281 85 347 172 346 88 -1 95 -51 48 -343
-28 -181 -31 -212 -18 -220 16 -10 150 -12 196 -3 29 6 30 8 47 112 30 178 67
334 92 383 24 48 60 72 111 72 34 0 73 -44 73 -83 0 -28 -66 -439 -76 -472 -5
-17 5 -18 119 -18 l124 0 17 93 c38 207 66 406 66 474 0 63 -3 75 -27 104 -41
48 -95 69 -183 69 -86 0 -162 -29 -218 -83 l-32 -31 -17 24 c-32 46 -60 68
-99 79 -36 10 -136 14 -159 6z"/>
<path d="M1365 1127 c-66 -22 -97 -42 -160 -104 -90 -87 -117 -152 -123 -283
-2 -62 0 -122 7 -147 17 -64 68 -124 134 -157 49 -25 71 -30 160 -34 199 -9
312 48 403 204 26 45 27 47 9 60 -20 15 -191 20 -210 6 -6 -4 -22 -23 -37 -43
-30 -40 -81 -69 -123 -69 -16 0 -38 11 -56 29 -28 29 -29 32 -29 133 0 118 15
162 72 216 41 39 81 52 125 40 39 -10 61 -40 70 -90 l6 -38 101 0 c129 0 143
8 126 71 -24 87 -75 156 -144 191 -34 18 -62 22 -166 25 -84 2 -138 -1 -165
-10z"/>
<path d="M5801 1121 c-13 -8 -6 -55 47 -313 79 -386 86 -436 66 -465 -19 -30
-59 -49 -117 -58 -54 -8 -63 -19 -73 -93 -6 -49 -6 -51 21 -58 42 -11 176 5
225 27 86 38 145 111 302 379 87 149 305 527 327 568 l12 22 -130 0 -130 0
-84 -172 c-46 -95 -99 -206 -117 -246 -18 -40 -35 -70 -37 -68 -6 6 -39 262
-48 372 -4 45 -11 88 -16 95 -10 17 -226 25 -248 10z"/>
</g>
</svg>
